<svg width="300" height="87" viewBox="0 0 300 87" fill="none" xmlns="http://www.w3.org/2000/svg">
<path d="M29.1648 70V17.6364H48.8011C52.8239 17.6364 56.1989 18.3864 58.9261 19.8864C61.6705 21.3864 63.7415 23.4489 65.1392 26.0739C66.554 28.6818 67.2614 31.6477 67.2614 34.9716C67.2614 38.3295 66.554 41.3125 65.1392 43.9205C63.7244 46.5284 61.6364 48.5824 58.875 50.0824C56.1136 51.5653 52.7131 52.3068 48.6733 52.3068H35.6591V44.5085H47.3949C49.7472 44.5085 51.6733 44.0994 53.1733 43.2812C54.6733 42.4631 55.7813 41.3381 56.4972 39.9062C57.2301 38.4744 57.5966 36.8295 57.5966 34.9716C57.5966 33.1136 57.2301 31.4773 56.4972 30.0625C55.7813 28.6477 54.6648 27.5483 53.1477 26.7642C51.6477 25.9631 49.7131 25.5625 47.3438 25.5625H38.6506V70H29.1648ZM76.3892 70H66.2642L84.6989 17.6364H96.4091L114.869 70H104.744L90.7585 28.375H90.3494L76.3892 70ZM76.7216 49.4688H104.335V57.0881H76.7216V49.4688ZM121.766 17.6364H133.374L148.92 55.5795H149.533L165.079 17.6364H176.687V70H167.585V34.0256H167.099L152.627 69.8466H145.826L131.354 33.9489H130.869V70H121.766V17.6364ZM187.016 70V17.6364H206.653C210.675 17.6364 214.05 18.3864 216.778 19.8864C219.522 21.3864 221.593 23.4489 222.991 26.0739C224.406 28.6818 225.113 31.6477 225.113 34.9716C225.113 38.3295 224.406 41.3125 222.991 43.9205C221.576 46.5284 219.488 48.5824 216.727 50.0824C213.965 51.5653 210.565 52.3068 206.525 52.3068H193.511V44.5085H205.246C207.599 44.5085 209.525 44.0994 211.025 43.2812C212.525 42.4631 213.633 41.3381 214.349 39.9062C215.082 38.4744 215.448 36.8295 215.448 34.9716C215.448 33.1136 215.082 31.4773 214.349 30.0625C213.633 28.6477 212.516 27.5483 210.999 26.7642C209.499 25.9631 207.565 25.5625 205.195 25.5625H196.502V70H187.016ZM234.241 70H224.116L242.55 17.6364H254.261L272.721 70H262.596L248.61 28.375H248.201L234.241 70ZM234.573 49.4688H262.187V57.0881H234.573V49.4688Z" fill="#FFFFFF"/>
<line y1="85.5" x2="300" y2="85.5" stroke="#FFFFFF" stroke-width="3"/>
<line y1="85.5" x2="300" y2="85.5" stroke="white" stroke-opacity="0.2" stroke-width="3"/>
</svg>
